<?xml version="1.0" encoding="utf-8"?>
<!-- Generator: Adobe Illustrator 24.1.2, SVG Export Plug-In . SVG Version: 6.00 Build 0)  -->
<svg version="1.1" id="Layer_1" xmlns="http://www.w3.org/2000/svg" xmlns:xlink="http://www.w3.org/1999/xlink" x="0px" y="0px"
	 viewBox="0 0 259.4 191.1" style="enable-background:new 0 0 259.4 191.1;" xml:space="preserve">
<style type="text/css">
	.st0{fill:#FFFFFF;stroke:#000000;stroke-width:2;stroke-miterlimit:10;}
	.st1{fill:#FFFFFF;stroke:#000000;stroke-width:3;stroke-miterlimit:10;}
	.st2{fill-rule:evenodd;clip-rule:evenodd;fill:#FFFFFF;stroke:#000000;stroke-width:3;stroke-miterlimit:10;}
	.st3{fill:none;stroke:#000000;stroke-miterlimit:10;}
	.st4{fill:#FFFFFF;stroke:#000000;stroke-miterlimit:10;}
	.st5{fill:#FFFFFF;stroke:#000000;stroke-width:0.75;stroke-miterlimit:10;}
</style>
<ellipse class="st0" cx="131.3" cy="109.4" rx="41.5" ry="10.9"/>
<ellipse class="st1" cx="129" cy="105" rx="128" ry="8"/>
<path class="st2" d="M170.6,77.9c-3.7-6.1-21.3-9.4-41.9-7.3S91.4,79.3,89,86C39,92,3.3,98.6,3.7,102c0.4,4.4,57.5,2.3,127.6-4.6
	h0.1h0.5c70.4-7,127-16.2,126.6-20.6C258.1,73.4,221.3,74,170.6,77.9z"/>
<path d="M126.5,66.5h8.2c2.7,0,4.9,1.7,4.9,3.9V73c0,2.2-2.2,3.9-4.9,3.9h-8.2c-2.7,0-4.9-1.7-4.9-3.9v-2.6
	C121.6,68.2,123.8,66.5,126.5,66.5z"/>
<path class="st3" d="M129.6,0.5L129.6,0.5c0.8,0,1.4,0.4,1.4,1v68c0,0.6-0.6,1-1.4,1l0,0c-0.8,0-1.4-0.4-1.4-1v-68
	C128.2,0.9,128.9,0.5,129.6,0.5z"/>
<path class="st4" d="M130.1,120.6L130.1,120.6c1,0,1.9,0.4,1.9,1v68c0,0.6-0.8,1-1.9,1l0,0c-1,0-1.9-0.4-1.9-1v-68
	C128.2,121,129.1,120.6,130.1,120.6z"/>
<path class="st5" d="M128.2,56h3.7c2,0,3.7,0.9,3.7,2v8c0,1.1-1.6,2-3.7,2h-3.7c-2,0-3.7-0.9-3.7-2v-8C124.5,56.9,126.1,56,128.2,56
	z"/>
<path d="M124.8,119.5h11.5c1.8,0,3.3,1.2,3.3,2.6v2.6c0,1.5-1.5,2.6-3.3,2.6h-11.5c-1.8,0-3.3-1.2-3.3-2.6v-2.6
	C121.6,120.7,123,119.5,124.8,119.5z"/>
</svg>
