<svg id="Layer_1" data-name="Layer 1" xmlns="http://www.w3.org/2000/svg" viewBox="0 0 324 284"><defs><style>.cls-1{fill:#fff;}.cls-2{fill:none;stroke-width:4px;}.cls-2,.cls-3{stroke:#000;stroke-miterlimit:10;}.cls-3{stroke-width:3px;}</style></defs><circle class="cls-1" cx="165" cy="137" r="125.5"/><path d="M260,119a123,123,0,1,1-87,36,122.16,122.16,0,0,1,87-36m0-5A128,128,0,1,0,388,242,128,128,0,0,0,260,114Z" transform="translate(-95 -105)"/><rect class="cls-1" x="283.5" y="128.5" width="13" height="14"/><path d="M390,235v11H380V235h10m3-3H377v17h16V232Z" transform="translate(-95 -105)"/><rect class="cls-1" x="34.5" y="128.5" width="13" height="14"/><path d="M141,235v11H131V235h10m3-3H128v17h16V232Z" transform="translate(-95 -105)"/><rect class="cls-1" x="157.5" y="1.5" width="15" height="14"/><path d="M266,108v11H254V108h12m3-3H251v17h18V105Z" transform="translate(-95 -105)"/><path d="M260,139.05a103,103,0,1,1-103,103,103.13,103.13,0,0,1,103-103m0-2a105,105,0,1,0,105,105,105,105,0,0,0-105-105Z" transform="translate(-95 -105)"/><rect class="cls-1" x="136.5" y="263.5" width="57" height="17"/><path d="M287,370v14H233V370h54m3-3H230v20h60V367Z" transform="translate(-95 -105)"/><rect class="cls-1" x="162.5" y="212.5" width="5" height="59"/><path d="M262,318v58h-4V318h4m1-1h-6v60h6V317Z" transform="translate(-95 -105)"/><rect x="156.5" y="192.5" width="17" height="20" rx="4.5"/><path d="M264,298a4,4,0,0,1,4,4v11a4,4,0,0,1-4,4h-8a4,4,0,0,1-4-4V302a4,4,0,0,1,4-4h8m0-1h-8a5,5,0,0,0-5,5v11a5,5,0,0,0,5,5h8a5,5,0,0,0,5-5V302a5,5,0,0,0-5-5Z" transform="translate(-95 -105)"/><line class="cls-2" x1="38.5" y1="144.5" x2="3.5" y2="281.5"/><line class="cls-2" x1="291.5" y1="144.5" x2="320.5" y2="280.5"/><rect class="cls-3" x="1.5" y="271.5" width="10" height="10" rx="2"/><rect class="cls-3" x="312.5" y="272.5" width="10" height="10" rx="2"/><rect class="cls-1" x="165" y="144" width="14" height="13" transform="translate(-150.35 68.85) rotate(-47.05)"/><path d="M172.09,143.07l7.32,6.81-7.5,8.05-7.32-6.81,7.5-8.05m-.15-4.24-11.59,12.44,11.71,10.9,11.59-12.44-11.71-10.9Z" transform="translate(-95 -105)"/><rect class="cls-1" x="342.37" y="146.56" width="14" height="13" transform="translate(-95.71 199.49) rotate(-47.05)"/><path d="M349.45,145.63l7.32,6.82-7.49,8.05L342,153.68l7.49-8.05m-.15-4.24-11.58,12.44,11.71,10.91L361,152.29l-11.71-10.9Z" transform="translate(-95 -105)"/><rect class="cls-1" x="162.37" y="322.56" width="14" height="13" transform="translate(-281.89 123.82) rotate(-47.05)"/><path d="M169.45,321.63l7.32,6.82-7.49,8.05L162,329.68l7.49-8.05m-.15-4.24-11.58,12.44,11.71,10.91L181,328.29l-11.71-10.9Z" transform="translate(-95 -105)"/><rect class="cls-1" x="340.37" y="322.56" width="14" height="13" transform="translate(-225.17 254.11) rotate(-47.05)"/><path d="M347.45,321.63l7.32,6.82-7.49,8.05L340,329.68l7.49-8.05m-.15-4.24-11.58,12.44,11.71,10.91L359,328.29l-11.71-10.9Z" transform="translate(-95 -105)"/></svg>