<svg id="Layer_1" data-name="Layer 1" xmlns="http://www.w3.org/2000/svg" viewBox="0 0 509.23 509.12"><path d="M486.54,510a11.39,11.39,0,0,1-8.13-3.36L4.83,33.05a11.55,11.55,0,0,1,0-16.27L16.32,5.29a11.55,11.55,0,0,1,16.27,0L506.16,478.87a11.54,11.54,0,0,1,0,16.26l-11.49,11.49A11.39,11.39,0,0,1,486.54,510Z" transform="translate(-0.98 -1.44)"/><path d="M24.46,2.44a10.9,10.9,0,0,1,7.77,3.21L505.81,479.22a11.06,11.06,0,0,1,0,15.56l-11.49,11.49a11,11,0,0,1-15.56,0L5.19,32.69a11,11,0,0,1,0-15.55L16.68,5.65a10.92,10.92,0,0,1,7.78-3.21m0-1A12,12,0,0,0,16,4.94L4.48,16.43a12,12,0,0,0,0,17L478.05,507a12,12,0,0,0,17,0l11.49-11.49a12,12,0,0,0,0-17L32.94,4.94a12,12,0,0,0-8.48-3.5Z" transform="translate(-0.98 -1.44)"/><path d="M24.65,510.06a11.42,11.42,0,0,1-8.13-3.35L5,495.22A11.52,11.52,0,0,1,5,479L478.6,5.38a11.54,11.54,0,0,1,16.26,0l11.49,11.49a11.53,11.53,0,0,1,0,16.27L32.78,506.71A11.42,11.42,0,0,1,24.65,510.06Z" transform="translate(-0.98 -1.44)"/><path d="M486.73,2.53a10.92,10.92,0,0,1,7.78,3.21L506,17.23a11,11,0,0,1,0,15.55L32.43,506.36a11.06,11.06,0,0,1-15.56,0L5.38,494.87a11,11,0,0,1,0-15.56L479,5.74a10.94,10.94,0,0,1,7.78-3.21m0-1A12,12,0,0,0,478.25,5L4.67,478.6a12,12,0,0,0,0,17l11.49,11.49a12,12,0,0,0,17,0L506.71,33.49a12,12,0,0,0,0-17L495.22,5a12,12,0,0,0-8.49-3.5Z" transform="translate(-0.98 -1.44)"/></svg>