<svg id="Layer_1" data-name="Layer 1" xmlns="http://www.w3.org/2000/svg" viewBox="0 0 294.08 282.63"><defs><style>.cls-1{fill:#fff;}.cls-2{stroke:#000;stroke-miterlimit:10;stroke-width:3px;}</style></defs><circle class="cls-1" cx="132" cy="137" r="125.5"/><path d="M260,119a123,123,0,1,1-87,36,122.16,122.16,0,0,1,87-36m0-5A128,128,0,1,0,388,242,128,128,0,0,0,260,114Z" transform="translate(-128 -105)"/><rect class="cls-1" x="250.5" y="128.5" width="13" height="14"/><path d="M390,235v11H380V235h10m3-3H377v17h16V232Z" transform="translate(-128 -105)"/><rect class="cls-1" x="1.5" y="128.5" width="13" height="14"/><path d="M141,235v11H131V235h10m3-3H128v17h16V232Z" transform="translate(-128 -105)"/><rect class="cls-1" x="124.5" y="1.5" width="15" height="14"/><path d="M266,108v11H254V108h12m3-3H251v17h18V105Z" transform="translate(-128 -105)"/><path d="M260,139.05a103,103,0,1,1-103,103,103.13,103.13,0,0,1,103-103m0-2a105,105,0,1,0,105,105,105,105,0,0,0-105-105Z" transform="translate(-128 -105)"/><rect class="cls-1" x="124.5" y="256.5" width="15" height="14"/><path d="M266,363v11H254V363h12m3-3H251v17h18V360Z" transform="translate(-128 -105)"/><rect class="cls-2" x="316.92" y="203.48" width="4.07" height="200" rx="2" transform="translate(625.86 266.91) rotate(145.37)"/><rect class="cls-2" x="328.6" y="180.06" width="4.07" height="200" rx="2" transform="translate(599.89 2.03) rotate(116.2)"/></svg>