<svg id="logo" xmlns="http://www.w3.org/2000/svg" viewBox="0 0 506.93 393.46"><defs><style>.cls-1,.cls-3{fill:none;stroke:#fff;stroke-miterlimit:10;}.cls-1{stroke-width:5px;}.cls-2{fill:#fff;}.cls-3{stroke-width:3px;}</style></defs><path class="cls-1" d="M120.14,123.15,141.5,98.5s5,7,10,7,29-20,51-13a46.21,46.21,0,0,1,17.19,9.74c8.18,7.36,10.81,13.26,10.81,15.26s-7,6-7,6-15,9-19,9-10-6-19,0-9,9-9,9l31,30s6,2,1,9-13,18-16,19-7,2-14-3c-3.61-2.58-12.82-9.43-20.89-15.45" transform="translate(-5.83 -65.95)"/><path class="cls-2" d="M154.45,165.71a28.38,28.38,0,0,0-2.22-8.53,43,43,0,0,0-4.8-7.86c-.44-.64-1-1.23-1.48-1.83s-1-1.22-1.54-1.8c-1.09-1.15-2.14-2.33-3.32-3.42a95.49,95.49,0,0,0-7.25-6.33A150.86,150.86,0,0,0,117.72,125a176.34,176.34,0,0,0-17.3-9l.2.08c-.72-.22-1.67-.47-2.55-.66s-1.81-.37-2.73-.52-1.85-.25-2.77-.38-1.86-.15-2.79-.24a62.69,62.69,0,0,0-11.21.39l-2.78.41c-.92.15-1.83.39-2.75.58-1.84.34-3.61,1-5.41,1.47-.9.27-1.76.65-2.64,1s-1.77.63-2.62,1l-2.54,1.2-1.27.61c-.42.2-.82.46-1.23.69-1.61,1-3.29,1.81-4.82,2.94l-2.34,1.6c-.8.51-1.49,1.15-2.24,1.72a52.83,52.83,0,0,0-8,7.76,36.48,36.48,0,0,0-5.75,9.35c-.36.83-.62,1.7-.94,2.54s-.53,1.73-.67,2.6a24.17,24.17,0,0,0-.42,2.62c0,.43-.08.87-.08,1.28s0,.9,0,1.12l-.11-.51c2.54,7.45,5.41,14.91,8.44,22.23s6.33,14.55,9.92,21.6A192.92,192.92,0,0,0,62.12,219a98,98,0,0,0,7,9.29c.62.74,1.26,1.45,1.92,2.14s1.31,1.4,2,2l1,1c.35.32.72.6,1.07.91l2.14,1.79.29.24.17.19c.9,1,2,2.12,3,3.13s2.18,2,3.31,3a59.13,59.13,0,0,0,7.12,5.2c4.93,3,10.43,5.17,15.69,4.88a15.94,15.94,0,0,0,7.38-2.21,68.26,68.26,0,0,0,7-5.31,102.19,102.19,0,0,0,13-12.4c.49-.55.91-1.13,1.38-1.69a1.57,1.57,0,0,1,.77-.11.59.59,0,0,0,.51-.31l.66-.89c.86-1.22,1.7-2.45,2.5-3.74s1.6-2.6,2.41-3.92,1.62-2.64,2.38-3.94a76.6,76.6,0,0,0,9.28-25.35,87.37,87.37,0,0,0,1.17-9c.22-3,.35-6.06.32-9.1,0-1.51,0-3-.11-4.55l-.12-2.28a2.38,2.38,0,0,0-.22-1.13,4.85,4.85,0,0,0-1-1.07Zm6.36-.44a5.13,5.13,0,0,0-.84,1.24,2.55,2.55,0,0,0-.09,1.19l.08,2.36c0,1.57,0,3.15,0,4.72,0,3.16-.23,6.3-.53,9.44A96.32,96.32,0,0,1,156,202.85a84.09,84.09,0,0,1-7.3,17.54c-.77,1.4-1.57,2.75-2.32,4.07s-1.54,2.69-2.36,4-1.66,2.71-2.57,4l-.69,1a.65.65,0,0,0-.18.63c.05.29.15.62.05.8-.48.67-1,1.3-1.52,1.92a108,108,0,0,1-13.83,13.2l-3.64,3c-.62.49-1.2,1-1.95,1.49a18.41,18.41,0,0,1-2.22,1.45,22.07,22.07,0,0,1-10.23,3A27.81,27.81,0,0,1,97,257.42a43.56,43.56,0,0,1-9-4.36,65,65,0,0,1-7.81-5.79c-1.22-1.06-2.42-2.14-3.56-3.27s-2.25-2.25-3.39-3.56l.46.43-2.44-2.08c-.4-.35-.82-.68-1.2-1l-1.12-1.1c-.76-.73-1.48-1.49-2.17-2.26s-1.4-1.54-2-2.35a105.36,105.36,0,0,1-7.34-9.89,200.06,200.06,0,0,1-12-21.16c-3.58-7.24-6.82-14.61-9.89-22s-5.88-15-8.45-22.64L27,156l0-.24a14.4,14.4,0,0,1,0-1.82c0-.56.07-1.09.11-1.64a27.74,27.74,0,0,1,.52-3.18c.19-1,.54-2,.81-3.07s.69-2,1.12-3a42.33,42.33,0,0,1,2.89-5.55L34.09,135,36,132.52A57.21,57.21,0,0,1,44.74,124c.8-.62,1.55-1.31,2.4-1.87l2.49-1.74c1.62-1.21,3.44-2.14,5.18-3.2.44-.25.87-.53,1.32-.76l1.38-.67,2.75-1.33c.92-.44,1.89-.76,2.83-1.14s1.89-.78,2.87-1.08c2-.57,3.88-1.26,5.89-1.65,1-.21,2-.47,3-.65l3-.47a68.38,68.38,0,0,1,12.22-.51c1,.08,2,.14,3.06.24s2,.22,3,.4,2,.33,3,.55,2,.45,3.13.8l.09,0,.12,0a182.13,182.13,0,0,1,18,9.17,154.52,154.52,0,0,1,16.84,11.23,99.86,99.86,0,0,1,7.75,6.67c1.27,1.15,2.43,2.43,3.63,3.67.6.62,1.14,1.31,1.71,2s1.14,1.31,1.65,2a47.75,47.75,0,0,1,5.57,9,33.84,33.84,0,0,1,2.81,10.59Z" transform="translate(-5.83 -65.95)"/><path class="cls-2" d="M114.24,187.87a11.23,11.23,0,0,1-.65,1.08l-.58.86c-.39.55-.78,1.09-1.18,1.61-.8,1.05-1.64,2.07-2.5,3.06a44.07,44.07,0,0,1-5.77,5.64,19.72,19.72,0,0,1-3.72,2.36,11.37,11.37,0,0,1-2.39.82,7.6,7.6,0,0,1-3,0c-.27-.06-.53-.13-.8-.21s-.41-.17-.61-.26c-.4-.19-.82-.37-1.18-.58A20.13,20.13,0,0,1,90,201a31.71,31.71,0,0,1-3-2.83,61.85,61.85,0,0,1-9.06-12.83A38,38,0,0,1,74.69,178a21.27,21.27,0,0,1-.52-2.09,18.5,18.5,0,0,1-.27-2.31,12.39,12.39,0,0,1,.94-4.65,23.42,23.42,0,0,1,4.54-7.16,26.25,26.25,0,0,1,6.56-5.29,17.67,17.67,0,0,1,8.63-2.36,14.84,14.84,0,0,1,4.69.79,16.4,16.4,0,0,1,4.13,2.22,34.74,34.74,0,0,1,3.15,2.93c.48.5.9,1.06,1.36,1.58l.67.8.6.86.59.85.3.43.15.22.06.11s.07.06,0,.15-.49.51-.46.59l.11.23.24.45.47.9a34.62,34.62,0,0,1,1.52,3.75,39.09,39.09,0,0,1,1.77,7.83c.09.66.15,1.33.19,2s.06,1.36.08,2,0,1.37-.09,2.1a10.07,10.07,0,0,1-.15,1.13c0,.21-.06.36-.14.63s.34.72.66,1.26ZM108.53,185a2.84,2.84,0,0,0,1,.38s0-.19.08-.29a5.21,5.21,0,0,0,.16-.72,14.08,14.08,0,0,0,.19-1.65,21.12,21.12,0,0,0-.09-3.46,23.8,23.8,0,0,0-1.75-6.76,27.37,27.37,0,0,0-1.56-3.11l-.47-.72-.23-.37-.12-.18s-.5.14-.7.18a12.08,12.08,0,0,1-1-1.35l-.47-.68-.54-.64c-.37-.42-.7-.88-1.09-1.28a27.25,27.25,0,0,0-2.34-2.2,11.94,11.94,0,0,0-2.44-1.39,8.92,8.92,0,0,0-2.68-.53,12.17,12.17,0,0,0-5.77,1.4,20,20,0,0,0-5.25,3.92,18.16,18.16,0,0,0-3.69,5.34,7.09,7.09,0,0,0-.64,2.65c.07.47,0,.9.15,1.42a15.21,15.21,0,0,0,.36,1.56A31.68,31.68,0,0,0,82.34,183a51.57,51.57,0,0,0,3.91,6,48.57,48.57,0,0,0,4.6,5.44,27,27,0,0,0,2.52,2.24c.43.36.84.54,1.25.84.19.09.35.14.52.23l.24.11.12,0a2.12,2.12,0,0,0,.75-.06,5.52,5.52,0,0,0,1.15-.45,13.35,13.35,0,0,0,2.56-1.74,38.32,38.32,0,0,0,4.85-5c.75-.92,1.48-1.86,2.18-2.83.35-.48.68-1,1-1.44l.46-.71c.13-.21.29-.49.31-.54Z" transform="translate(-5.83 -65.95)"/><path class="cls-2" d="M217.2,102.49a65,65,0,0,1-.35-7.15,34.14,34.14,0,0,1,.77-7.33,22,22,0,0,1,2.88-7.16,19.8,19.8,0,0,1,5.43-5.62c.52-.38,1.07-.7,1.6-1s1.1-.61,1.65-.91a20.72,20.72,0,0,1,3.7-1.41,23.85,23.85,0,0,1,7.66-.72,34.16,34.16,0,0,1,7.31,1.33c1.17.34,2.33.73,3.47,1.17a32.66,32.66,0,0,1,3.43,1.53l.23.11.19.17a23.43,23.43,0,0,1,1.94,1.88c.58.63,1.13,1.27,1.65,1.94a30.94,30.94,0,0,1,2.81,4.25,29.39,29.39,0,0,1,3.4,9.62c.12.85.2,1.71.3,2.56s.05,1.71.07,2.57-.11,1.7-.16,2.55l-.11,1.23-.11,1a10,10,0,0,0,.29,3.65,2.76,2.76,0,0,0,.58,1.14,1.84,1.84,0,0,0,.78.53,4.72,4.72,0,0,0,2.9-.22,11.89,11.89,0,0,0,3.31-1.86,12.86,12.86,0,0,0,2.66-2.81,7.16,7.16,0,0,0,.88-1.63c.12-.29.25-.56.36-.86l.26-1c.19-.61.25-1.33.39-2s.17-1.4.2-2.14c.09-1.47.11-3,.11-4.52a83.34,83.34,0,0,1,.3-9.63,24.62,24.62,0,0,1,.4-2.53l.27-1.28c.12-.43.27-.85.4-1.28a17.07,17.07,0,0,1,1-2.53,9.21,9.21,0,0,1,.71-1.2c.26-.39.49-.81.78-1.17a15.9,15.9,0,0,1,4.17-3.74A15.34,15.34,0,0,1,291,66.17a17.91,17.91,0,0,1,5.42,0,20,20,0,0,1,2.62.54l.65.2.34.11.17.06.26.1,1.16.54a95.67,95.67,0,0,1,8.44,4.61A70.06,70.06,0,0,1,318,77.88,35.9,35.9,0,0,1,325,85.17c.25.37.48.7.74,1.11a9.78,9.78,0,0,1,.66,1.42,21.78,21.78,0,0,1,.79,2.51c.41,1.62.72,3.2,1,4.78.54,3.16.93,6.29,1.28,9.42v.28h0v-.28c0,.35.09.7.08,1a4.38,4.38,0,0,1-.28,1.09,2.41,2.41,0,0,0-.06,1.06l.11,1,.38,4.18c.24,2.78.44,5.57.65,8.36.43,5.57.77,11.14,1.07,16.72q.88,16.73.66,33.51c-.09,5.6-.25,11.2-.7,16.84a66.28,66.28,0,0,1-1.16,8.6,14.77,14.77,0,0,1-.73,2.38,6.15,6.15,0,0,1-.33.7l-.23.38a4.59,4.59,0,0,1-.33.44,4.19,4.19,0,0,1-.94.8L327,202a18.51,18.51,0,0,1-4.61,1.38,75.75,75.75,0,0,1-17.23.71c-2.85-.18-5.7-.48-8.55-.94a42.2,42.2,0,0,1-8.57-2.24,13.89,13.89,0,0,1-4.33-2.61l-.53-.52c-.17-.22-.33-.44-.49-.67l-.23-.34-.15-.27-.27-.53a14.52,14.52,0,0,1-1-2.26,10.77,10.77,0,0,1-.54-2.62,9.64,9.64,0,0,1,.18-2.71c.16-.84.37-1.51.4-1.89a1.33,1.33,0,0,0-.1-.79c0-.07-.07-.15-.1-.23l-.18-.27a7,7,0,0,0-.48-.64,6.85,6.85,0,0,0-.48-.53c-.13-.09-.25-.22-.34-.24a5,5,0,0,0-2.62-.08c-2.5.38-5.22,1.07-7.89,1.73l-8.08,2.06-4.05,1c-.69.17-1.32.35-2.06.51l-2.22.45a28.9,28.9,0,0,1-17.76-2.66,27.41,27.41,0,0,1-7.35-5.44l-.79-.84-.74-.91a20.19,20.19,0,0,1-1.36-1.89c-.45-.63-.79-1.35-1.18-2-.18-.4-.34-.83-.5-1.24-.07-.21-.16-.43-.22-.63l-.15-.56a59.8,59.8,0,0,1-1.43-8.62c-.32-2.82-.53-5.62-.74-8.42-.74-11.2-1-22.35-1.17-33.52l5-.06c.16,11.1.44,22.21,1.18,33.23.2,2.75.41,5.5.72,8.21a55.79,55.79,0,0,0,1.28,7.84l.12.45c0,.13.09.23.13.35l.27.71c.31.52.55,1.07.91,1.57a17.07,17.07,0,0,0,1.08,1.49l.58.72.64.68a22.29,22.29,0,0,0,6,4.46,23.84,23.84,0,0,0,14.7,2.22l1.87-.38c.62-.11,1.34-.32,2-.48l4-1,8.11-2.05c2.73-.66,5.41-1.36,8.42-1.81l1.19-.12c.41,0,.87,0,1.3,0a11.46,11.46,0,0,1,1.48.18,6.41,6.41,0,0,1,1.59.6,6.24,6.24,0,0,1,1.36,1c.33.33.68.7.93,1a11.07,11.07,0,0,1,.76,1l.39.61.34.71a6.51,6.51,0,0,1,.43,3.3c-.14,1-.37,1.66-.46,2.19a4.84,4.84,0,0,0-.11,1.44,5.48,5.48,0,0,0,.31,1.45,7.86,7.86,0,0,0,1.39,2.63,9.5,9.5,0,0,0,2.81,1.62,37,37,0,0,0,7.55,2c2.64.44,5.34.73,8,.91a72.12,72.12,0,0,0,16.07-.59,14.69,14.69,0,0,0,3.38-1l.25-.15c.21-.13-.16.12-.14.14a0,0,0,0,0,0,0l0-.08a1.31,1.31,0,0,0,.12-.24,11.69,11.69,0,0,0,.48-1.61,61.14,61.14,0,0,0,1.08-7.93c.45-5.45.63-11,.73-16.52s.07-11.08,0-16.63-.19-11.09-.32-16.64-.37-11.1-.67-16.63c-.17-2.77-.38-5.54-.61-8.3l-.37-4.13-.09-1a2.21,2.21,0,0,0-.27-1,4.39,4.39,0,0,1-.5-1c-.08-.34-.09-.68-.14-1v-.28h0V105c-.34-3.07-.73-6.13-1.25-9.12-.26-1.5-.55-3-.91-4.38a19.65,19.65,0,0,0-.6-2c-.12-.28-.23-.53-.32-.7l-.57-.83a30.77,30.77,0,0,0-6-6.2,65.68,65.68,0,0,0-7.38-5.16c-2.58-1.57-5.27-3-8-4.34l-1-.44-.34-.11c-.16,0-.3-.1-.47-.14a15.84,15.84,0,0,0-2-.41,12.74,12.74,0,0,0-3.9,0,10.07,10.07,0,0,0-3.47,1.24,10.54,10.54,0,0,0-2.74,2.48,15,15,0,0,0-2.56,7.43,81.2,81.2,0,0,0-.24,9.06c0,1.57,0,3.19-.11,4.84,0,.82-.16,1.68-.23,2.51s-.25,1.71-.51,2.59l-.36,1.31c-.15.43-.35.87-.53,1.31a12.82,12.82,0,0,1-1.34,2.47,18.07,18.07,0,0,1-3.74,4,16.78,16.78,0,0,1-4.82,2.69,12.28,12.28,0,0,1-2.93.63,8.08,8.08,0,0,1-3.35-.39,7,7,0,0,1-3-2.06,8,8,0,0,1-1.61-3,15,15,0,0,1-.53-5.61l.13-1.3c.05-.45.06-.73.1-1.1,0-.71.16-1.41.12-2.11s0-1.41-.05-2.11-.15-1.4-.25-2.09A24.54,24.54,0,0,0,257,86.09a26.36,26.36,0,0,0-2.36-3.55q-.66-.84-1.38-1.62c-.24-.24-.48-.51-.72-.74l-.69-.64.42.28c-.83-.42-1.87-.88-2.84-1.26s-2-.74-3-1a29.88,29.88,0,0,0-6.18-1.16,18.66,18.66,0,0,0-6,.52,15.27,15.27,0,0,0-2.72,1c-.45.25-.92.48-1.36.74s-.88.53-1.28.82a14.71,14.71,0,0,0-4.08,4.17,17.11,17.11,0,0,0-2.23,5.51,29.52,29.52,0,0,0-.68,6.3,55.93,55.93,0,0,0,.29,6.57Z" transform="translate(-5.83 -65.95)"/><path class="cls-2" d="M324.43,104.7h0l0-.93.67-.76c2.16-2.42,4.29-4.88,6.48-7.27l.15-.16.11-.09.34-.26a2.64,2.64,0,0,1,.29-.21c.18-.12.37-.25.56-.36.37-.23.75-.43,1.12-.63a17.11,17.11,0,0,1,2.36-1,15.89,15.89,0,0,1,5-.74,16.84,16.84,0,0,1,5,.82,20.63,20.63,0,0,1,2.3.89c.73.35,1.43.75,2.14,1.13l-.44-.21c2.86,1.14,5.55,2.36,8.27,3.69s5.37,2.74,8,4.32a53.81,53.81,0,0,1,7.54,5.44,23.79,23.79,0,0,1,3.38,3.6,16.1,16.1,0,0,1,1.44,2.23,10.16,10.16,0,0,1,1,2.75l.05.27v.24l-.11,12-.26,1.12h0c0-.12,0,0,0-.06s0-.05,0-.13a.65.65,0,0,0,0-.2,1.14,1.14,0,0,0-.1-.37,2.19,2.19,0,0,0-.25-.42,2.41,2.41,0,0,0-.34-.32c-.55-.33-.64-.22-.61-.23s.08,0,.14,0a1.86,1.86,0,0,0,.22,0,12.31,12.31,0,0,0,2.77-.88,33.15,33.15,0,0,1,3.39-1.31,16.94,16.94,0,0,1,1.83-.47c.61-.13,1.21-.26,1.83-.33a32.55,32.55,0,0,1,7.24-.14c1.19.1,2.38.23,3.55.42s2.32.36,3.58.6h0l.24,0,.25.17a51.42,51.42,0,0,1,7.74,6.28,40.32,40.32,0,0,1,6.28,7.85c.4.76.86,1.48,1.19,2.28l.54,1.18a4,4,0,0,1,.24.72l.22.8a13.61,13.61,0,0,1-.35,5.55A47.34,47.34,0,0,1,415.8,161a159.38,159.38,0,0,1-9.66,16.84c-3.5,5.42-7.14,10.7-11,15.88l-.07.09-.08.08-18.09,18.92-.13.14-.11.08a11.9,11.9,0,0,1-1.21.75c-.38.22-.77.41-1.16.6-.78.37-1.58.68-2.38,1a27.64,27.64,0,0,1-5,1.15,29.74,29.74,0,0,1-10-.5,33.7,33.7,0,0,1-9.34-3.51,17.85,17.85,0,0,1-4.07-3.33,14.05,14.05,0,0,1-2.67-4.65,19.52,19.52,0,0,1-1-5.06c-.13-1.65-.13-3.27-.13-4.84a7.22,7.22,0,0,1,.69-3,12.44,12.44,0,0,1,1.45-2.33,28.54,28.54,0,0,1,3.46-3.63c2.42-2.18,4.93-4.11,7.34-6.09a54.48,54.48,0,0,0,6.69-6.18,10.89,10.89,0,0,0,2.13-3.4,4.09,4.09,0,0,0,.25-1.61,13.89,13.89,0,0,0-.44-1.85,6.07,6.07,0,0,0-1.82-3,3.23,3.23,0,0,0-2.93-.23,14.69,14.69,0,0,0-3.73,1.81c-.61.41-1.22.81-1.82,1.28s-1.19.92-1.77,1.41-1.16,1-1.73,1.49l-.88.78c-.32.28-.64.57-1,.85a9.57,9.57,0,0,1-1.22.83,4,4,0,0,1-2.21.6,2.82,2.82,0,0,1-1.87-.89,3.26,3.26,0,0,1-.72-1.33,6.31,6.31,0,0,1-.21-1.74,30.74,30.74,0,0,1,.67-5.05l.92-4.63a43.05,43.05,0,0,0,.67-4.44,13.23,13.23,0,0,0,0-2,2.58,2.58,0,0,0-.2-.89c.3.25.18.13-.11.2a3.91,3.91,0,0,0-1.28.65,17.9,17.9,0,0,0-3,2.85,61.79,61.79,0,0,0-5.28,7.36l-4.2-2.72a68.68,68.68,0,0,1,5.95-7.79,22,22,0,0,1,3.95-3.52,8.08,8.08,0,0,1,3-1.27,3.44,3.44,0,0,1,1-.09,3.58,3.58,0,0,1,1.06.11,4,4,0,0,1,2.22,1.25,4.77,4.77,0,0,1,1,1.92,7.59,7.59,0,0,1,.26,1.6,17.12,17.12,0,0,1-.09,2.72,47.52,47.52,0,0,1-.82,4.87l-1,4.62a28.75,28.75,0,0,0-.68,4.28,3.21,3.21,0,0,0,0,.59s0-.08-.19-.29a1.29,1.29,0,0,0-.83-.4c-.41,0-.17,0,0-.09a5.51,5.51,0,0,0,.74-.49c.26-.19.53-.42.81-.65l.9-.78c.61-.52,1.22-1.05,1.87-1.55s1.27-1,1.95-1.49,1.36-.94,2.06-1.39a17.84,17.84,0,0,1,4.76-2.23,9.05,9.05,0,0,1,3-.31,8.5,8.5,0,0,1,1.62.34,7.63,7.63,0,0,1,1.49.81,9.51,9.51,0,0,1,3.15,4.87,14.35,14.35,0,0,1,.58,2.74,7.64,7.64,0,0,1-.47,3,14.31,14.31,0,0,1-2.84,4.55,56.4,56.4,0,0,1-7.21,6.55c-2.47,2-5,3.89-7.21,5.93a25.9,25.9,0,0,0-3,3.19,8.9,8.9,0,0,0-1,1.66,3.79,3.79,0,0,0-.38,1.55c0,3.12,0,6.19.9,8.78a10.67,10.67,0,0,0,2,3.45,14.06,14.06,0,0,0,3.25,2.58,30.07,30.07,0,0,0,8.29,3,26,26,0,0,0,8.75.36,24.13,24.13,0,0,0,4.21-1c.68-.25,1.34-.51,2-.82.31-.16.63-.32.93-.49s.62-.38.79-.5l-.24.22L392,191.1l-.15.17c3.77-5.07,7.44-10.29,10.9-15.6a156.21,156.21,0,0,0,9.49-16.37,43.81,43.81,0,0,0,3.27-8.54,9.86,9.86,0,0,0,.33-3.94c0-.12-.07-.24-.1-.36a1.88,1.88,0,0,0-.13-.41l-.45-1c-.27-.68-.69-1.31-1-2A42.89,42.89,0,0,0,401.54,130l.49.22h0a24.17,24.17,0,0,0-6.39-1,28.16,28.16,0,0,0-6.39.5,15.39,15.39,0,0,0-3,.86,11.37,11.37,0,0,0-1.37.61c-.41.19-1,.51-1.52.78a18.85,18.85,0,0,1-3.65,1.48c-.17,0-.41.08-.61.12a4.49,4.49,0,0,1-.72.07h-.64l-.3-.06a3,3,0,0,1-1.29-.55,3.08,3.08,0,0,1-1.11-1.4,3.42,3.42,0,0,1-.21-.77c0-.21,0-.43,0-.64a5.25,5.25,0,0,1,.14-1,5.17,5.17,0,0,1,.3-.85h0L375,129.5l-.11-12,.05.51a5.37,5.37,0,0,0-.51-1.39,12.42,12.42,0,0,0-1-1.46,18.92,18.92,0,0,0-2.68-2.79,49.13,49.13,0,0,0-6.8-4.83c-2.44-1.46-5-2.79-7.57-4s-5.27-2.43-7.88-3.46l-.11,0-.33-.17c-.54-.29-1.07-.61-1.61-.88a14.48,14.48,0,0,0-1.65-.65,11.44,11.44,0,0,0-3.39-.62,10.62,10.62,0,0,0-3.36.46,10.88,10.88,0,0,0-1.59.61c-.24.13-.5.26-.73.4s-.5.33-.57.37l.26-.25c-2.19,2.4-4.44,4.74-6.66,7.11l.65-1.69h-5Z" transform="translate(-5.83 -65.95)"/><path class="cls-1" d="M120.5,249.9c15.49,8.64,34.09,21.23,40,26.6s9.36,12.74,9.41,22.58h0c0,8.86-2.78,19.62-9.41,32.41-7.92,15.27-21.92,23.19-34,26.81-9.3,2.8-17.5,3.06-21,2.19-14.92-3.71-7.61-2.45-26.42-12.39" transform="translate(-5.83 -65.95)"/><path class="cls-1" d="M72.2,235.71c-5.12.62-9.84,2.64-10.7,7.79,0,0-48,75-50,83s-6,13,0,30,37,23,41,23c3.81,0,26.9-33.13,27-34" transform="translate(-5.83 -65.95)"/><path class="cls-2" d="M129,358.63c-.92,7.62-1.74,15.27-2.13,22.87a77.88,77.88,0,0,0,.08,11.14,14.73,14.73,0,0,0,.42,2.39,3.43,3.43,0,0,0,.28.72c-.06-.06.2.22.44.44a21,21,0,0,0,4.25,2.72,81.52,81.52,0,0,0,10.31,4.3c3.56,1.24,7.19,2.33,10.86,3.3a129.5,129.5,0,0,0,22.26,4,44.58,44.58,0,0,0,10.81-.26,13.32,13.32,0,0,0,4.45-1.5,5.81,5.81,0,0,0,1.52-1.26l.4-.48.31-.37a4.12,4.12,0,0,1,.69-.65,3.48,3.48,0,0,1,.89-.49,3.32,3.32,0,0,1,1.46-.2,3.55,3.55,0,0,1,1.81.73,4.47,4.47,0,0,1,.66.61,5.38,5.38,0,0,1,.49.63,6.8,6.8,0,0,1,.94,2.29,15.49,15.49,0,0,1,.29,1.75,23.79,23.79,0,0,0,.34,2.56,2.71,2.71,0,0,0,.22.67c.06.13.07.12.07.11l0,0,.06,0h0l.14,0,1.34.31c3.67.8,7.42,1.44,11.14,1.89a63.47,63.47,0,0,0,11,.53,17.5,17.5,0,0,0,4.85-.85,4.13,4.13,0,0,0,1.47-.82,1,1,0,0,0,.15-.16c0-.06.12-.18.2-.32.16-.29.33-.67.5-1.05a53.64,53.64,0,0,0,1.78-5.16c.54-1.8,1-3.63,1.52-5.47,1-3.69,1.83-7.42,2.66-11.17l-.07.62h0v-.32l.07-.3q3-13.12,5.37-26.42c1.61-8.84,3.22-17.72,4.31-26.57.24-2.19.5-4.44.56-6.53a28.17,28.17,0,0,0-.47-6.25,17.44,17.44,0,0,0-5.84-10.37,18.83,18.83,0,0,0-5.27-3.07,32,32,0,0,0-6.17-1.59,61,61,0,0,0-13.07-.86,24.37,24.37,0,0,0-6.2,1.06,7.87,7.87,0,0,0-2.46,1.23,3.3,3.3,0,0,0-1.21,1.77,16,16,0,0,0-.08,5.86,45.26,45.26,0,0,1,.46,7.09,14.29,14.29,0,0,1-.69,4,10.83,10.83,0,0,1-2.21,3.78,14.79,14.79,0,0,1-3.19,2.51,27.47,27.47,0,0,1-3.32,1.71,33.07,33.07,0,0,1-7,2.13,26.52,26.52,0,0,1-7.47.37,16.39,16.39,0,0,1-7.54-2.6,13.25,13.25,0,0,1-5-6.61,17,17,0,0,1-.55-1.94c-.12-.59-.24-1.16-.34-1.76a35.43,35.43,0,0,1-.47-3.62,19.86,19.86,0,0,1,.77-7.69,25.9,25.9,0,0,1,3.52-6.57c.61-.92,1.16-1.79,1.63-2.68.24-.44.46-.88.66-1.33.11-.23.19-.46.29-.69l.07-.17,0-.08a.53.53,0,0,0,.05-.15.67.67,0,0,0,0-.4,1.59,1.59,0,0,0-.33-.6,7.43,7.43,0,0,0-1.92-1.53,28.92,28.92,0,0,0-5.71-2.36l-1.78-.55v-1.84h5l-1.77-2.39a32.55,32.55,0,0,1,6.8,2.75,12.43,12.43,0,0,1,3.34,2.69,6.86,6.86,0,0,1,1.29,2.35,6,6,0,0,1,.13,2.93c-1.64,5.65-5.36,8.75-6.31,12.22a14.62,14.62,0,0,0-.52,5.71,28.12,28.12,0,0,0,.4,3.09c.08.51.2,1.05.3,1.56a11.17,11.17,0,0,0,.38,1.32,7.9,7.9,0,0,0,3,4.06,11,11,0,0,0,5.13,1.76,25.2,25.2,0,0,0,11.95-2,21.34,21.34,0,0,0,2.7-1.37,10.56,10.56,0,0,0,2.15-1.62,7.36,7.36,0,0,0,1.78-4.66,50.23,50.23,0,0,0-.11-6.43c-.06-1.15-.11-2.34-.06-3.59a13,13,0,0,1,.71-4,7.48,7.48,0,0,1,1.1-2,7.17,7.17,0,0,1,1.65-1.57,13.08,13.08,0,0,1,3.63-1.67,31.48,31.48,0,0,1,7.13-1.13,65.3,65.3,0,0,1,13.91.74,35.78,35.78,0,0,1,7,1.71,22.6,22.6,0,0,1,6.42,3.63,21.22,21.22,0,0,1,4.88,5.67,24.07,24.07,0,0,1,2.66,6.91,32,32,0,0,1,.74,7.2c0,2.43-.22,4.68-.41,7a516.27,516.27,0,0,1-8.78,53.73l.07-.62h0v.31l-.07.31c-.84,3.79-1.72,7.58-2.69,11.36-.49,1.9-1,3.79-1.57,5.69a57.52,57.52,0,0,1-2,5.77c-.22.51-.45,1-.75,1.57a9.24,9.24,0,0,1-.57.9,6.25,6.25,0,0,1-.8.93A9.92,9.92,0,0,1,231.7,422a23.18,23.18,0,0,1-6.5,1.2,68.7,68.7,0,0,1-12.07-.54c-3.94-.48-7.81-1.13-11.69-2l-1.48-.34-.21-.05-.31-.09a4.29,4.29,0,0,1-.62-.23,6.22,6.22,0,0,1-1.22-.69,6.05,6.05,0,0,1-1.76-2.1,8.94,8.94,0,0,1-.73-2.05,29,29,0,0,1-.44-3.18,5.55,5.55,0,0,0-.3-1.49l0,.07a1.33,1.33,0,0,0,.13.11,2.27,2.27,0,0,0,1.16.43,2.63,2.63,0,0,0,1.11-.15,2.22,2.22,0,0,0,.57-.31,1.26,1.26,0,0,0,.18-.15l-.15.19-.53.63a11.92,11.92,0,0,1-2.91,2.44,18.9,18.9,0,0,1-6.44,2.23,49.77,49.77,0,0,1-12.28.28A135.89,135.89,0,0,1,152,412c-3.8-1-7.56-2.16-11.27-3.48a84.86,84.86,0,0,1-11-4.68,25.81,25.81,0,0,1-5.41-3.62,9.16,9.16,0,0,1-.68-.7,5.61,5.61,0,0,1-.76-1,9,9,0,0,1-.79-2,20.27,20.27,0,0,1-.56-3.31,81.21,81.21,0,0,1,0-12c.5-7.82,1.41-15.52,2.43-23.21Z" transform="translate(-5.83 -65.95)"/><path class="cls-2" d="M243,393h0l-.15-.86c1.73,4.68,3.57,9.33,5.71,13.73a42.37,42.37,0,0,0,3.57,6.15,8.23,8.23,0,0,0,1.93,2l.17.11a4,4,0,0,0,.41.19l.87.39,1.72.78a33.56,33.56,0,0,0,6.56,2.42,9.29,9.29,0,0,0,3,.12,13,13,0,0,0,3.06-.82c.53-.21,1.05-.42,1.58-.68l1.71-.81c1.21-.58,2.45-1.07,3.67-1.54,2.41-.92,4.85-1.64,6.31-2.73a5.72,5.72,0,0,0,1.73-2,9.46,9.46,0,0,0,.61-1.36c.08-.24.15-.51.23-.77a4.53,4.53,0,0,0,.18-.7,9.87,9.87,0,0,0,0-3,29.68,29.68,0,0,0-.7-3.42c-1.21-4.67-3-9.36-4.7-14.17a54.26,54.26,0,0,1-2.22-7.65A11.59,11.59,0,0,1,278,376c0-.26,0-.53.08-.79a4.41,4.41,0,0,1,.24-.93,3.86,3.86,0,0,1,1.74-2.05,5.91,5.91,0,0,1,3.15-.62,11,11,0,0,1,2.41.43,77.36,77.36,0,0,1,7.27,3,19.83,19.83,0,0,0,3.18,1.07,4.27,4.27,0,0,0,2.26,0h0l1.54-.11h0l.11,0h.27a3.33,3.33,0,0,0,.54-.07,2.47,2.47,0,0,0,1-.51,4.05,4.05,0,0,0,.89-1.07,6.22,6.22,0,0,0,.37-.73c.12-.26.23-.59.35-.88.92-2.5,1.39-5.45,2.66-8.53a11.52,11.52,0,0,1,3.11-4.42,12.44,12.44,0,0,1,1.21-.84,11.8,11.8,0,0,1,1.35-.61,6.65,6.65,0,0,1,1.53-.34L314,358c.27,0,.53,0,.79.07a9.05,9.05,0,0,1,5,2.47,14.93,14.93,0,0,1,1.73,1.84,17.71,17.71,0,0,1,1.45,2.08l.09.16.07.19c2,5.76,4.15,11.52,6.56,17.11a89.24,89.24,0,0,0,4,8.17,31.17,31.17,0,0,0,2.34,3.71,10.42,10.42,0,0,0,1.3,1.51,1.91,1.91,0,0,0,.32.27,1.23,1.23,0,0,0,.29.21c.15.13.41.14.6.24a13.3,13.3,0,0,0,4,.11,42.56,42.56,0,0,0,4.38-.66,82.34,82.34,0,0,0,8.76-2.28,85.5,85.5,0,0,0,8.5-3.15,37.56,37.56,0,0,0,4-2,14.28,14.28,0,0,0,1.72-1.15,4.34,4.34,0,0,0,.61-.56c.16-.15.12-.31.08.09l0,.34c-2.37-10.9-5.15-21.77-8.41-32.45q-2.47-8-5.45-15.81c-.51-1.28-1-2.59-1.54-3.86l-1.64-3.82c-1.16-2.49-2.36-4.95-3.66-7.49q-7.56-15.15-14.1-30.76-1.63-3.9-3.21-7.83l-.76-1.92c-.24-.57-.52-1.15-.81-1.72a20.53,20.53,0,0,0-2-3.16,8.88,8.88,0,0,0-5.28-3.65,6,6,0,0,0-3,.27c-.41.13-1.25.48-1.91.71s-1.4.48-2.09.7c-5.56,1.74-11.13,2.76-16.32,4.31a35.93,35.93,0,0,0-3.71,1.31,13.16,13.16,0,0,0-3.06,1.7,4.39,4.39,0,0,0-.93,1,5.49,5.49,0,0,0-.56,1.26,26,26,0,0,0-.77,3.71c-.38,2.66-.61,5.46-1,8.31-.18,1.43-.38,2.88-.68,4.36a21.55,21.55,0,0,1-1.39,4.57,9.93,9.93,0,0,1-1.54,2.43,6.1,6.1,0,0,1-3,1.87,6.75,6.75,0,0,1-3.26,0c-.48-.08-.87-.23-1.3-.34s-.79-.28-1.16-.44a46.81,46.81,0,0,1-7.74-4.46c-2.37-1.61-4.65-3.28-6.93-4.9s-4.54-3.21-6.78-4.48a16.21,16.21,0,0,0-1.63-.8,4.13,4.13,0,0,0-1.21-.37c-.08,0-.06,0,0,0h0l-.07,0-.27.05-1.08.2-2.11.35c-2.77.45-5.51.91-8.24,1.41a116.65,116.65,0,0,0-16,3.92c-1.28.44-2.55.89-3.76,1.42l-.92.39-.8.39a10.75,10.75,0,0,0-1.42.91,7.36,7.36,0,0,0-2.93,5.41l-5-.44a12.9,12.9,0,0,1,1.43-5,12.29,12.29,0,0,1,3.4-4,15.51,15.51,0,0,1,2.11-1.37l1.1-.55,1-.43c1.36-.6,2.74-1.1,4.11-1.58a121.56,121.56,0,0,1,16.68-4.2c2.8-.54,5.6-1,8.36-1.44l2.06-.34,1-.18a6.64,6.64,0,0,1,1.73-.12,8.92,8.92,0,0,1,2.82.77,20.49,20.49,0,0,1,2.15,1.06,86.13,86.13,0,0,1,7.26,4.8c2.3,1.64,4.55,3.29,6.82,4.84a42.76,42.76,0,0,0,6.81,4c.28.12.54.2.81.31a6.75,6.75,0,0,0,.74.19,2,2,0,0,0,.9.06,1,1,0,0,0,.51-.34,5.31,5.31,0,0,0,.69-1.13,28.83,28.83,0,0,0,1.66-7.44c.35-2.72.58-5.52,1-8.42a30.38,30.38,0,0,1,1-4.52,10.15,10.15,0,0,1,1.19-2.56,9.51,9.51,0,0,1,2-2.07A18,18,0,0,1,294.7,277a41.12,41.12,0,0,1,4.23-1.49c5.58-1.64,11.1-2.65,16.27-4.26.64-.2,1.27-.41,1.9-.64s1.12-.43,2-.74a11,11,0,0,1,5.34-.45,11.64,11.64,0,0,1,4.87,2.11,17.5,17.5,0,0,1,3.47,3.46,26,26,0,0,1,2.47,3.95c.35.68.67,1.37,1,2.1l.77,2q1.5,3.9,3.09,7.79c4.23,10.35,8.67,20.62,13.5,30.71,1.22,2.48,2.43,5.09,3.6,7.7l1.63,4c.53,1.32,1,2.65,1.51,4q2.91,8,5.27,16.13c3.17,10.85,5.94,21.76,8.27,32.83l0,.18v.16a3.07,3.07,0,0,1-.36,1.35,4.24,4.24,0,0,1-.55.78,7.13,7.13,0,0,1-1.08,1,17.4,17.4,0,0,1-2.13,1.41,44.31,44.31,0,0,1-4.3,2.16,93.15,93.15,0,0,1-8.82,3.33,85.1,85.1,0,0,1-9.13,2.42,42.76,42.76,0,0,1-4.75.74,16.33,16.33,0,0,1-5.22-.18,7,7,0,0,1-1.53-.63,4.76,4.76,0,0,1-.66-.45,4.4,4.4,0,0,1-.55-.48,14.21,14.21,0,0,1-1.74-2,36.57,36.57,0,0,1-2.62-4.09c-1.55-2.77-2.92-5.59-4.21-8.43-2.57-5.69-4.86-11.43-7-17.31l.16.35c-1.26-2-3.44-4.16-5.13-4.23l-.31,0-.3.05c-.21,0-.4.12-.61.16s-.43.22-.65.31-.39.27-.58.43a7.18,7.18,0,0,0-1.77,2.81c-.94,2.38-1.35,5.3-2.34,8.36a10.79,10.79,0,0,1-2.87,4.79,7.27,7.27,0,0,1-2.83,1.6,7.44,7.44,0,0,1-1.62.29,7.85,7.85,0,0,1-.84,0l-.44,0-.23,0-.33-.06,1.54-.11h0a8.91,8.91,0,0,1-5.2.21,23.62,23.62,0,0,1-4-1.33c-2.43-1-4.71-2.18-6.74-2.77a6.44,6.44,0,0,0-1.31-.25,1.69,1.69,0,0,0-.53,0,1.18,1.18,0,0,0,.59-.6s0-.1,0,0a.41.41,0,0,1,0,.16,7.62,7.62,0,0,0,.14,1.36,52.22,52.22,0,0,0,2,6.87c1.64,4.72,3.5,9.46,4.83,14.57a35.38,35.38,0,0,1,.8,4,14.32,14.32,0,0,1,0,4.58,9.68,9.68,0,0,1-.29,1.13c-.1.34-.19.69-.31,1a14.89,14.89,0,0,1-.94,2.1A10.77,10.77,0,0,1,286,415.5a16.9,16.9,0,0,1-3.91,2c-1.25.49-2.45.9-3.59,1.33s-2.24.88-3.31,1.39l-1.71.81c-.61.3-1.26.56-1.9.82a18.19,18.19,0,0,1-4.24,1.11,14.43,14.43,0,0,1-4.55-.17,22.34,22.34,0,0,1-4.05-1.24c-1.25-.48-2.42-1-3.59-1.53l-1.73-.78-.86-.38-.45-.21-.65-.36a12.78,12.78,0,0,1-3.39-3.32,48.19,48.19,0,0,1-4-6.92c-2.27-4.68-4.14-9.44-5.92-14.22l-.15-.41V393h5Z" transform="translate(-5.83 -65.95)"/><path class="cls-3" d="M113.5,309.5c-4,3-16-3-18-4s6-15,6-15c1-3,12,1,14,6S117.5,306.5,113.5,309.5Z" transform="translate(-5.83 -65.95)"/><path class="cls-1" d="M404.17,342.17c7.2-4.09,15.06-9.58,23.33-14.67,13-8,14-28,13-40-.44-5.29-4.37-13.48-8.89-21.17-5.75-9.77-12.43-18.71-14.11-19.83A82.89,82.89,0,0,0,406,239.91c-5.11-2.36-11.32-4.41-17.53-4.41-13,0-31,3-44,6-10.5,2.42-21,10.72-26.23,15.4-1.25,1.11-2.19,2-2.77,2.6-1.3,1.3.6,7.14,3.17,13.32" transform="translate(-5.83 -65.95)"/><path class="cls-1" d="M404.17,342.17C394,353,418.1,366.3,417.5,373.5c-1,12-26,27-40,26-4.38-.31-8.17-3.75-11.32-8.34" transform="translate(-5.83 -65.95)"/><path class="cls-1" d="M376.4,114.78C400,105,455.86,85,481.5,100.5c33,20,8,102,8,102s-9,34-24,28-20-24-44-16c-11.59,3.86-15,15-15.47,25.41" transform="translate(-5.83 -65.95)"/><path class="cls-1" d="M431.61,266.33c15.33-.67,40.37,3.24,60.89,30.17,32,42,11,112,11,112s-7,37-68,46-99-9-112-25-15-39-8-50c1.85-2.91,4.33-6.79,7.06-11" transform="translate(-5.83 -65.95)"/><path class="cls-1" d="M305.43,201.67c-3.22,8.22-5.92,18.9-3.93,28.83,1.53,7.65,8.61,17.34,16.77,26.4" transform="translate(-5.83 -65.95)"/><path class="cls-1" d="M427.48,327.51c5,2.36,9.44,5.73,8,10-3,9-3,13-18,13a106.5,106.5,0,0,1-16-2" transform="translate(-5.83 -65.95)"/><path class="cls-3" d="M381.5,288.5s4,10,10,11,7-5,6-9-2-6-10-8S381.5,288.5,381.5,288.5Z" transform="translate(-5.83 -65.95)"/></svg>