<svg id="Layer_1" data-name="Layer 1" xmlns="http://www.w3.org/2000/svg" viewBox="0 0 307.76 25.3"><defs><style>.cls-1{isolation:isolate;}.cls-2{fill:#f7982d;}</style></defs><g class="cls-1"><g class="cls-1"><path d="M29.77,8.52V25a4.41,4.41,0,0,1-4.39,4.39H8.53A4.41,4.41,0,0,1,4.14,25V8.52A4.41,4.41,0,0,1,8.53,4.13H25.38A4.41,4.41,0,0,1,29.77,8.52ZM18.65,12.91H12.93v7.66h5.68A4.59,4.59,0,0,1,21,18.16v-3A4.36,4.36,0,0,1,18.65,12.91Z" transform="translate(-4.14 -4.05)"/><path d="M58.28,8.91a1.5,1.5,0,0,1,0,.4v4.86a4.37,4.37,0,0,1-4.21,4.39h-4.9L54.36,21a4.46,4.46,0,0,1,2.27,2.48,4.34,4.34,0,0,1-.15,3.35,4.45,4.45,0,0,1-4,2.56,4.31,4.31,0,0,1-1.84-.43L41.8,24.82V25A4.4,4.4,0,0,1,33,25V8.52a4.41,4.41,0,0,1,4.4-4.39H53.93a4.41,4.41,0,0,1,4.39,4.39A1.29,1.29,0,0,1,58.28,8.91Zm-16.48,4V15h7.81a6.23,6.23,0,0,1-.07-.86V12.91Z" transform="translate(-4.14 -4.05)"/><path d="M86.62,8.44V24.89a4.45,4.45,0,0,1-3.71,4.36,4.74,4.74,0,0,1-1,.11H65.38A4.41,4.41,0,0,1,61,25V8.52a4.39,4.39,0,0,1,8.78,0V20.57h8V8.44a4.41,4.41,0,0,1,8.82,0Z" transform="translate(-4.14 -4.05)"/><path d="M115.49,8.44V24.89a4.41,4.41,0,0,1-8.82,0v-12h-2V17.3c0,.68-.72,1.19-1.77,1.19s-1.76-.51-1.76-1.19V12.84H98.64V25a4.39,4.39,0,0,1-8.78,0V8.52a4.39,4.39,0,0,1,3.85-4.36,4,4,0,0,1,.9-.11H111.1A4.41,4.41,0,0,1,115.49,8.44Z" transform="translate(-4.14 -4.05)"/><path d="M143.57,19.68V25a4.41,4.41,0,0,1-4.39,4.39H122.73a4.4,4.4,0,1,1,0-8.79h12v-.89a6.4,6.4,0,0,1,.08-.87H123.05a4.36,4.36,0,0,1-4.39-4.39V8.52a4.38,4.38,0,0,1,4.39-4.39H139.5a4.39,4.39,0,0,1,0,8.78H127.44v1.51a8.09,8.09,0,0,1-.07.86h11.81A4.39,4.39,0,0,1,143.57,19.68Z" transform="translate(-4.14 -4.05)"/></g><g class="cls-1"><path class="cls-2" d="M171.22,25a4.41,4.41,0,0,1-4.4,4.39H150.37a4.4,4.4,0,0,1,0-8.79h16.45A4.42,4.42,0,0,1,171.22,25Z" transform="translate(-4.14 -4.05)"/></g><g class="cls-1"><path d="M199,8.91a1.5,1.5,0,0,1,0,.4v4.93a4.41,4.41,0,0,1-4.39,4.39H182.56V25a4.4,4.4,0,0,1-8.79,0V8.52a4.41,4.41,0,0,1,4.39-4.39h16.53a4.41,4.41,0,0,1,4.39,4.39A1.29,1.29,0,0,1,199,8.91Zm-16.48,6.16h7.81a5.31,5.31,0,0,1-.08-.83V12.91h-7.73Z" transform="translate(-4.14 -4.05)"/><path d="M227,8.44V24.89a4.45,4.45,0,0,1-3.7,4.36,4.74,4.74,0,0,1-1,.11H205.78a4.42,4.42,0,0,1-4.4-4.39V8.52a4.4,4.4,0,0,1,8.79,0V20.57h8V8.44a4.41,4.41,0,0,1,8.81,0Z" transform="translate(-4.14 -4.05)"/><path d="M255.89,8.44V24.89a4.41,4.41,0,0,1-8.82,0v-12H245V17.3c0,.68-.72,1.19-1.76,1.19s-1.76-.51-1.76-1.19V12.84H239V25a4.39,4.39,0,1,1-8.78,0V8.52a4.39,4.39,0,0,1,3.85-4.36,4,4,0,0,1,.9-.11h16.48A4.41,4.41,0,0,1,255.89,8.44Z" transform="translate(-4.14 -4.05)"/><path d="M284.4,8.91a2,2,0,0,1,0,.4v4.93A4.41,4.41,0,0,1,280,18.63H267.91V25a4.39,4.39,0,0,1-8.78,0V8.52a4.41,4.41,0,0,1,4.39-4.39H280a4.41,4.41,0,0,1,4.39,4.39A1.71,1.71,0,0,1,284.4,8.91Zm-16.49,6.16h7.81a7,7,0,0,1-.07-.83V12.91h-7.74Z" transform="translate(-4.14 -4.05)"/><path d="M311.58,19.68V25a4.41,4.41,0,0,1-4.39,4.39H290.74a4.4,4.4,0,1,1,0-8.79h12.05v-.89a6.4,6.4,0,0,1,.08-.87H291.06a4.36,4.36,0,0,1-4.39-4.39V8.52a4.38,4.38,0,0,1,4.39-4.39h16.45a4.39,4.39,0,0,1,0,8.78H295.45v1.51a8.09,8.09,0,0,1-.07.86h11.81A4.39,4.39,0,0,1,311.58,19.68Z" transform="translate(-4.14 -4.05)"/></g></g></svg>